# xmcd CD database file
# Copyright (C) 1997 Ti Kan
#
# Track frame offsets:
#  150
#  7938
#  34085
#  51598
#  69037
#  88685
#  101623
#  126685
#  151055
#  163995
#  197097
#  217235
#  236772
#  254195
#
# Disc length: 3547 seconds
#
# Revision: 1
# Processed by: cddbd v1.4b41PL1 Copyright (c) Steve Scherf et al.
# Submitted via: CDWizzard Release:4.32
#
DISCID=ce0dd90e
DTITLE=Steve Haun - Birth of Dreams
DYEAR=1900
DGENRE=
TTITLE0=Prelude
TTITLE1=Birth of dreams
TTITLE2=Welcome to the world
TTITLE3=Unspoken love
TTITLE4=I will follow you
TTITLE5=In this lifetime
TTITLE6=Derba
TTITLE7=A feeling of spring
TTITLE8=A place inside
TTITLE9=Where angels dance
TTITLE10=Leave no child Behind
TTITLE11=First moments
TTITLE12=Unspoken Love (reprise)
TTITLE13=New fronter
EXTD=1994
EXTT0=
EXTT1=
EXTT2=
EXTT3=
EXTT4=
EXTT5=
EXTT6=
EXTT7=
EXTT8=
EXTT9=
EXTT10=
EXTT11=
EXTT12=
EXTT13=
PLAYORDER=
